<?xml version="1.0" encoding="UTF-8" standalone="no"?>
<!-- Created with Inkscape (http://www.inkscape.org/) -->

<svg
   xmlns:dc="http://purl.org/dc/elements/1.1/"
   xmlns:cc="http://creativecommons.org/ns#"
   xmlns:rdf="http://www.w3.org/1999/02/22-rdf-syntax-ns#"
   xmlns:svg="http://www.w3.org/2000/svg"
   xmlns="http://www.w3.org/2000/svg"
   xmlns:sodipodi="http://sodipodi.sourceforge.net/DTD/sodipodi-0.dtd"
   xmlns:inkscape="http://www.inkscape.org/namespaces/inkscape"
   width="33.337498mm"
   height="42.798935mm"
   viewBox="0 0 33.337498 42.798935"
   version="1.1"
   id="svg8"
   inkscape:version="0.92.5 (2060ec1f9f, 2020-04-08)"
   sodipodi:docname="diagon-initial.svg">
  <defs
     id="defs2" />
  <sodipodi:namedview
     id="base"
     pagecolor="#ffffff"
     bordercolor="#666666"
     borderopacity="1.0"
     inkscape:pageopacity="0.0"
     inkscape:pageshadow="2"
     inkscape:zoom="0.35"
     inkscape:cx="-119.29046"
     inkscape:cy="-382.56545"
     inkscape:document-units="mm"
     inkscape:current-layer="layer1"
     showgrid="false"
     inkscape:window-width="2488"
     inkscape:window-height="1376"
     inkscape:window-x="72"
     inkscape:window-y="27"
     inkscape:window-maximized="1" />
  <metadata
     id="metadata5">
    <rdf:RDF>
      <cc:Work
         rdf:about="">
        <dc:format>image/svg+xml</dc:format>
        <dc:type
           rdf:resource="http://purl.org/dc/dcmitype/StillImage" />
        <dc:title></dc:title>
      </cc:Work>
    </rdf:RDF>
  </metadata>
  <g
     inkscape:label="Layer 1"
     inkscape:groupmode="layer"
     id="layer1"
     transform="translate(-3.5920288,-7.8377644)">
    <path
       style="font-style:normal;font-variant:normal;font-weight:normal;font-stretch:normal;font-size:56.99090195px;line-height:1.25;font-family:Audiowide;-inkscape-font-specification:Audiowide;letter-spacing:0px;word-spacing:0px;fill:#d68024;fill-opacity:1;stroke:none;stroke-width:5.38496685"
       d="M 112.23047,29.623047 V 152.99414 c 0,3.57596 -0.91134,6.30997 -2.73438,8.20313 -1.82303,1.89315 -4.5924,2.83984 -8.30859,2.83984 H 51.861328 c -3.575955,0 -6.311928,-0.94669 -8.205078,-2.83984 -1.823037,-1.89316 -2.734375,-4.69788 -2.734375,-8.41407 v -36.81054 c 0,-3.57596 0.946691,-6.27658 2.839844,-8.09961 1.893153,-1.89316 4.662521,-2.83985 8.308593,-2.83985 H 101.1875 V 77.689453 H 51.861328 c -3.786303,0 -7.924636,0.665829 -12.412109,1.998047 -4.487473,1.332218 -8.659203,3.539862 -12.515625,6.625 -3.786305,3.01502 -6.975993,6.976593 -9.570313,11.884766 -2.524203,4.838054 -3.787109,10.763714 -3.787109,17.775394 v 37.02148 c 0,2.5242 0.280862,5.25822 0.841797,8.20313 0.631051,2.87478 1.577742,5.75021 2.839843,8.625 1.262102,2.80467 2.874622,5.50333 4.837891,8.09765 2.033386,2.59432 4.453142,4.90802 7.257813,6.94141 2.874787,1.96327 6.17053,3.54239 9.886718,4.73437 3.716188,1.19199 7.923272,1.78711 12.621094,1.78711 H 101.1875 c 2.59432,0 5.32834,-0.28086 8.20312,-0.84179 2.94491,-0.63105 5.82033,-1.57775 8.625,-2.83985 2.87479,-1.2621 5.60881,-2.87462 8.20313,-4.83789 2.59432,-2.03338 4.87462,-4.45119 6.83789,-7.25586 1.96327,-2.87478 3.54044,-6.17053 4.73242,-9.88672 1.19199,-3.7863 1.78711,-8.02874 1.78711,-12.72656 V 29.623047 Z"
       transform="scale(0.26458333)"
       id="path832"
       inkscape:connector-curvature="0" />
  </g>
</svg>
