<?xml version="1.0" encoding="UTF-8" standalone="no"?>
<!-- Created with Inkscape (http://www.inkscape.org/) -->

<svg
   xmlns:dc="http://purl.org/dc/elements/1.1/"
   xmlns:cc="http://creativecommons.org/ns#"
   xmlns:rdf="http://www.w3.org/1999/02/22-rdf-syntax-ns#"
   xmlns:svg="http://www.w3.org/2000/svg"
   xmlns="http://www.w3.org/2000/svg"
   xmlns:sodipodi="http://sodipodi.sourceforge.net/DTD/sodipodi-0.dtd"
   xmlns:inkscape="http://www.inkscape.org/namespaces/inkscape"
   width="11.099512in"
   height="3.049114in"
   viewBox="0 0 11.099512 3.049114"
   version="1.1"
   id="svg4629"
   inkscape:version="0.92.5 (2060ec1f9f, 2020-04-08)"
   sodipodi:docname="diagon.svg">
  <defs
     id="defs4623" />
  <sodipodi:namedview
     id="base"
     pagecolor="#ffffff"
     bordercolor="#666666"
     borderopacity="1.0"
     inkscape:pageopacity="0.0"
     inkscape:pageshadow="2"
     inkscape:zoom="0.35"
     inkscape:cx="-130.71959"
     inkscape:cy="-223.03896"
     inkscape:document-units="in"
     inkscape:current-layer="layer1"
     showgrid="false"
     units="in"
     width="11.5in"
     inkscape:window-width="2488"
     inkscape:window-height="1376"
     inkscape:window-x="72"
     inkscape:window-y="27"
     inkscape:window-maximized="1" />
  <metadata
     id="metadata4626">
    <rdf:RDF>
      <cc:Work
         rdf:about="">
        <dc:format>image/svg+xml</dc:format>
        <dc:type
           rdf:resource="http://purl.org/dc/dcmitype/StillImage" />
        <dc:title></dc:title>
      </cc:Work>
    </rdf:RDF>
  </metadata>
  <g
     inkscape:label="Layer 1"
     inkscape:groupmode="layer"
     id="layer1"
     transform="translate(-0.20094815,-5.1942302)">
    <path
       style="font-style:normal;font-variant:normal;font-weight:normal;font-stretch:normal;font-size:3.11138582px;line-height:1.25;font-family:Audiowide;-inkscape-font-specification:Audiowide;letter-spacing:0px;word-spacing:0px;fill:#d68024;fill-opacity:1;stroke:none;stroke-width:7.46732712"
       d="M 156.0957,28.246094 V 199.32422 c 0,4.95878 -1.26497,8.75174 -3.79297,11.37695 -2.52801,2.62522 -6.36826,3.9375 -11.52148,3.9375 H 72.378906 c -4.958774,0 -8.749771,-1.31228 -11.375,-3.9375 -2.528,-2.62525 -3.792968,-6.51475 -3.792968,-11.66797 v -51.04687 c 0,-4.95878 1.312271,-8.70247 3.9375,-11.23047 2.625233,-2.62522 6.467437,-3.9375 11.523437,-3.9375 H 140.78125 V 94.898438 H 72.378906 c -5.250464,0 -10.986213,0.924124 -17.208984,2.771484 -6.222773,1.847424 -12.007776,4.909358 -17.355469,9.187498 -5.250461,4.18093 -9.675895,9.67431 -13.273437,16.48047 -3.500308,6.70892 -5.25,14.92535 -5.25,24.64844 v 51.33789 c 0,3.50031 0.390122,7.29326 1.167968,11.37695 0.875077,3.98647 2.187345,7.97252 3.9375,11.95899 1.750155,3.88923 3.986522,7.63293 6.708985,11.23046 2.819693,3.59755 6.173268,6.80531 10.0625,9.625 3.986463,2.72247 8.555751,4.90957 13.708984,6.5625 5.153233,1.65293 10.987489,2.48047 17.501953,2.48047 h 68.402344 c 3.59757,0 7.39052,-0.39011 11.37695,-1.16797 4.08372,-0.87507 8.06977,-2.18735 11.95899,-3.9375 3.98649,-1.75014 7.77749,-3.98648 11.375,-6.70898 3.5975,-2.81971 6.75797,-6.17328 9.48047,-10.0625 2.72243,-3.98648 4.90957,-8.55577 6.5625,-13.70898 1.65292,-5.25047 2.48046,-11.13398 2.48046,-17.64844 V 28.246094 Z m 74.67188,0 v 34.27539 h 37.91992 v -34.27539 z m 0,66.652344 V 252.55859 H 268.6875 V 94.898438 Z m 101.50976,0 v 36.023442 h 83.27735 c 4.66709,0 8.50929,1.46002 11.52343,4.37695 3.11136,2.91691 4.66602,6.85371 4.66602,11.8125 v 52.9414 c 0,4.66711 -1.4088,8.55661 -4.22852,11.66797 -2.81971,3.11136 -6.80772,4.66797 -11.96093,4.66797 h -68.10938 c -4.47261,0 -8.36211,-1.36149 -11.66797,-4.08398 -3.20864,-2.81968 -4.8125,-6.70919 -4.8125,-11.66797 0,-4.66711 1.40881,-8.55661 4.22852,-11.66797 2.8197,-3.20864 6.80772,-4.8125 11.96094,-4.8125 h 68.40039 V 147.98633 H 347.1543 c -9.52862,0 -17.6485,1.74971 -24.35742,5.25 -6.6117,3.50034 -12.00853,7.87652 -16.18946,13.12695 -4.08371,5.15321 -7.04912,10.7924 -8.89648,16.91797 -1.84736,6.1255 -2.76953,11.81396 -2.76953,17.06445 0,9.52862 1.74971,17.64654 5.25,24.35547 3.50032,6.61169 7.82725,12.00853 12.98047,16.18945 5.25048,4.08372 10.88968,7.04913 16.91796,8.89649 6.12557,1.84736 11.81402,2.77148 17.06446,2.77148 h 68.40039 c 9.52862,0 17.59924,-1.74969 24.21093,-5.25 6.70893,-3.5003 12.10571,-7.82723 16.18946,-12.98047 4.18093,-5.25048 7.19561,-10.88968 9.04297,-16.91796 1.84736,-6.12558 2.76953,-11.81402 2.76953,-17.06446 v -53.23437 c 0,-9.52862 -1.74971,-17.59925 -5.25,-24.21094 -3.50034,-6.70891 -7.87457,-12.10379 -13.125,-16.1875 -5.15321,-4.18093 -10.7924,-7.195608 -16.91797,-9.042968 -6.02835,-1.84736 -11.66949,-2.771484 -16.91992,-2.771484 z m 217.74805,0 c -6.51448,0 -12.34874,0.825587 -17.50195,2.478515 -5.15321,1.652864 -9.72249,3.841957 -13.70899,6.564457 -3.88921,2.72249 -7.24278,5.88296 -10.0625,9.48047 -2.72249,3.59751 -4.95884,7.3885 -6.70898,11.375 -1.75015,3.88926 -3.06438,7.82802 -3.93945,11.81445 -0.77786,3.98644 -1.16602,7.77743 -1.16602,11.375 v 51.33789 c 0,6.51443 0.82754,12.39794 2.48047,17.64844 1.65286,5.15326 3.84,9.72255 6.5625,13.70898 2.72243,3.88922 5.8829,7.24279 9.48047,10.0625 3.59755,2.7225 7.3393,4.95884 11.22851,6.70898 3.9865,1.75015 7.97451,3.06243 11.96094,3.9375 3.9865,0.77786 7.7775,1.16797 11.375,1.16797 h 68.40234 v -37.91992 h -68.10937 c -5.05602,0 -8.89822,-1.31228 -11.52344,-3.9375 -2.62521,-2.62521 -3.9375,-6.41817 -3.9375,-11.37695 v -51.33789 c 0,-4.37537 1.36155,-7.97326 4.08399,-10.79297 2.72247,-2.91693 6.41691,-4.375 11.08398,-4.375 h 68.40234 c 5.15324,0 8.99349,1.31228 11.52149,3.9375 2.528,2.52799 3.79297,6.27168 3.79297,11.23047 v 119.74023 c 0,4.95879 -1.26497,8.74979 -3.79297,11.375 -2.52802,2.62522 -6.36827,3.93946 -11.52149,3.93946 h -68.40234 v 37.91992 h 68.40234 c 3.59751,0 7.38851,-0.43743 11.375,-1.3125 4.08371,-0.77786 8.07173,-2.04283 11.96094,-3.79297 3.98644,-1.75015 7.77743,-4.03576 11.375,-6.85547 3.59757,-2.7225 6.75804,-6.07607 9.48047,-10.0625 2.72243,-3.88926 4.90957,-8.45855 6.5625,-13.70898 1.65293,-5.15324 2.48047,-10.98749 2.48047,-17.50196 V 147.98633 c 0,-6.51449 -0.82754,-12.34874 -2.48047,-17.50195 -1.65286,-5.15325 -3.84,-9.67329 -6.5625,-13.5625 -2.72243,-3.98644 -5.8829,-7.34196 -9.48047,-10.06446 -3.59751,-2.81971 -7.3885,-5.10337 -11.375,-6.85351 -3.88921,-1.750148 -7.87722,-3.015117 -11.96094,-3.792972 -3.98643,-0.875072 -7.77743,-1.3125 -11.375,-1.3125 z m 206.22656,0 c -5.25045,0 -10.9862,0.924124 -17.20898,2.771484 -6.22275,1.847424 -12.00776,4.909358 -17.35547,9.187498 -5.25044,4.18093 -9.67587,9.67431 -13.27344,16.48047 -3.50029,6.70892 -5.25,14.92535 -5.25,24.64844 v 51.33789 c 0,9.82031 1.7497,18.1333 5.25,24.93945 3.59754,6.70892 8.02298,12.20231 13.27344,16.48047 5.34769,4.18093 11.1327,7.19555 17.35547,9.04297 6.22274,1.84736 11.95849,2.77148 17.20898,2.77148 h 68.40235 c 3.59757,0 7.38856,-0.39011 11.375,-1.16797 4.0837,-0.87507 8.07172,-2.18735 11.96093,-3.9375 3.98644,-1.75014 7.77744,-3.98648 11.375,-6.70898 3.59751,-2.81971 6.75798,-6.17328 9.48047,-10.0625 2.72244,-3.98648 4.90958,-8.55577 6.5625,-13.70898 1.65293,-5.25047 2.48047,-11.13398 2.48047,-17.64844 v -51.33789 c 0,-5.34769 -0.97333,-11.13269 -2.91797,-17.35547 -1.84736,-6.22274 -4.86204,-11.96044 -9.04297,-17.21094 -4.18092,-5.34771 -9.67431,-9.77119 -16.48046,-13.27148 -6.80616,-3.50029 -15.06989,-5.250002 -24.79297,-5.250002 z m 172.97461,0 c -2.62521,0 -5.10588,0.486696 -7.43945,1.458984 -2.33357,0.972288 -4.37486,2.33384 -6.125,4.083988 -1.75014,1.65299 -3.1117,3.64501 -4.08399,5.97851 -0.97228,2.23635 -1.45898,4.66775 -1.45898,7.29297 v 138.8457 h 37.91992 V 132.81836 h 66.36134 c 4.5698,0 8.7982,0.77827 12.6875,2.33398 3.9862,1.45844 7.4383,3.59631 10.3555,6.41602 2.9164,2.81966 5.2023,6.22444 6.8554,10.21094 1.7504,3.88921 2.625,8.3127 2.625,13.27148 v 87.50781 h 37.92 v -87.50781 c -1e-4,-8.55631 -1.0702,-16.23876 -3.209,-23.04492 -2.1389,-6.80618 -5.0553,-12.78428 -8.75,-17.9375 -3.5977,-5.2505 -7.7788,-9.67593 -12.543,-13.27344 -4.667,-3.69472 -9.6264,-6.70745 -14.877,-9.04101 -5.153,-2.430724 -10.4041,-4.182389 -15.7519,-5.251957 -5.2506,-1.069568 -10.2573,-1.603515 -15.0215,-1.603515 z M 756.54297,132.81836 h 68.11133 c 4.95879,0 8.74978,1.26497 11.375,3.79297 2.62521,2.52797 3.93945,6.41552 3.93945,11.66601 v 51.04688 c 0,4.95878 -1.26497,8.75174 -3.79297,11.37695 -2.52802,2.62522 -6.36827,3.9375 -11.52148,3.9375 h -68.11133 c -5.05602,0 -8.89627,-1.31228 -11.52149,-3.9375 -2.62521,-2.62521 -3.9375,-6.41817 -3.9375,-11.37695 v -51.33789 c 0,-4.95878 1.31229,-8.70247 3.9375,-11.23047 2.62524,-2.62522 6.46549,-3.9375 11.52149,-3.9375 z"
       transform="matrix(0.01041667,0,0,0.01041667,0,4.9)"
       id="path4635"
       inkscape:connector-curvature="0" />
  </g>
</svg>
